<svg xmlns="http://www.w3.org/2000/svg" viewBox="0 0 240 240"><ellipse cx="120" cy="215" rx="65" ry="8" fill="#eff0ec"/><path d="m109 20 19 14 23-7-13 25q40 28 39 51l-2 100q-55 17-110 0l-4-100q0-27 43-51Z" fill="#efdebf"/><path d="m68 94 100 0v99H68Z" fill="#b88045"/><path d="M76 116V90q0-22 21-22h47q21 0 21 22v26Z" fill="#d8a968"/><path d="M67 126h106v51H67Z" fill="#9b5541"/><text x="120" y="147" text-anchor="middle" font-family="sans-serif" font-size="10" fill="#fff" letter-spacing="2">HORNEADO</text><text x="120" y="167" text-anchor="middle" font-family="sans-serif" font-size="17" fill="#fff" font-weight="bold">PAN DE MOLDE</text><path d="m104 52 34-2" stroke="#547662" stroke-width="9"/><text x="120" y="197" text-anchor="middle" font-family="sans-serif" font-size="9" fill="#fff7e6">450 g · DEMO</text></svg>